<svg xmlns="http://www.w3.org/2000/svg" viewBox="0 0 48 48" role="img" aria-label="The Grain Council of Uganda">
  <!-- Official TGCU emblem: green wheat-ear + two leaves, gold crescent, green banner.
       Concrete brand hex (favicon can't use CSS vars): green #15803d/#2e9e4f, gold #f8c832. -->
  <path d="M14 17 A 15.5 15.5 0 1 0 34 17" fill="none" stroke="#f8c832" stroke-width="3.4" stroke-linecap="round"/>
  <path d="M24 34 C 15.5 33.5 10.8 28.5 12 22.4 C 17.4 25 22 29 24 34 Z" fill="#15803d"/>
  <path d="M24 34 C 32.5 33.5 37.2 28.5 36 22.4 C 30.6 25 26 29 24 34 Z" fill="#15803d"/>
  <line x1="24" y1="33" x2="24" y2="13" stroke="#2e9e4f" stroke-width="1.6" stroke-linecap="round"/>
  <g fill="#2e9e4f">
    <path d="M0 0 C -1.9 -2.6 -1.9 -6.4 0 -8.4 C 1.9 -6.4 1.9 -2.6 0 0 Z" transform="translate(24 30.5) rotate(-30)"/>
    <path d="M0 0 C -1.9 -2.6 -1.9 -6.4 0 -8.4 C 1.9 -6.4 1.9 -2.6 0 0 Z" transform="translate(24 30.5) rotate(30)"/>
    <path d="M0 0 C -1.9 -2.6 -1.9 -6.4 0 -8.4 C 1.9 -6.4 1.9 -2.6 0 0 Z" transform="translate(24 26.2) rotate(-30) scale(0.9)"/>
    <path d="M0 0 C -1.9 -2.6 -1.9 -6.4 0 -8.4 C 1.9 -6.4 1.9 -2.6 0 0 Z" transform="translate(24 26.2) rotate(30) scale(0.9)"/>
    <path d="M0 0 C -1.9 -2.6 -1.9 -6.4 0 -8.4 C 1.9 -6.4 1.9 -2.6 0 0 Z" transform="translate(24 22.1) rotate(-30) scale(0.78)"/>
    <path d="M0 0 C -1.9 -2.6 -1.9 -6.4 0 -8.4 C 1.9 -6.4 1.9 -2.6 0 0 Z" transform="translate(24 22.1) rotate(30) scale(0.78)"/>
    <path d="M0 0 C -1.9 -2.6 -1.9 -6.4 0 -8.4 C 1.9 -6.4 1.9 -2.6 0 0 Z" transform="translate(24 18.2) rotate(-30) scale(0.64)"/>
    <path d="M0 0 C -1.9 -2.6 -1.9 -6.4 0 -8.4 C 1.9 -6.4 1.9 -2.6 0 0 Z" transform="translate(24 18.2) rotate(30) scale(0.64)"/>
    <path d="M0 0 C -1.9 -2.6 -1.9 -6.4 0 -8.4 C 1.9 -6.4 1.9 -2.6 0 0 Z" transform="translate(24 13.5) scale(0.62)"/>
  </g>
  <ellipse cx="24" cy="35.4" rx="9.2" ry="3.7" fill="#15803d"/>
</svg>
